<?xml version="1.0" encoding="UTF-8" standalone="no"?>
<svg
   xmlns:dc="http://purl.org/dc/elements/1.1/"
   xmlns:cc="http://creativecommons.org/ns#"
   xmlns:rdf="http://www.w3.org/1999/02/22-rdf-syntax-ns#"
   xmlns:svg="http://www.w3.org/2000/svg"
   xmlns="http://www.w3.org/2000/svg"
   xmlns:sodipodi="http://sodipodi.sourceforge.net/DTD/sodipodi-0.dtd"
   xmlns:inkscape="http://www.inkscape.org/namespaces/inkscape"
   inkscape:version="1.0 (4035a4f, 2020-05-01)"
   sodipodi:docname="plantIcon.svg.2021_08_05_21_55_27.0.svg"
   xml:space="preserve"
   viewBox="0 0 20.000001 20"
   height="20"
   width="20"
   y="0px"
   x="0px"
   version="1.1"><defs
   ><inkscape:path-effect
     background_color="#ffffffff"
     background="false"
     hide_mask="false"
     invert="false"
     uri="#mask-powermask-path-effect909"
     lpeversion="0"
     is_visible="true"
     effect="powermask" /><mask
     maskUnits="userSpaceOnUse"><path
       style="fill:#ffffff;stroke:#ffffff;stroke-width:104.226"
       d="M 343.84343,55.643624 H 674.84551 V 853.71399 H 343.84343 Z" /></mask><mask
     maskUnits="userSpaceOnUse"><path
       d="M 343.84343,55.643624 H 674.84551 V 853.71399 H 343.84343 Z"
       style="fill:#ffffff;stroke:#ffffff;stroke-width:104.226" /></mask><filter
     y="-50"
     x="-50"
     width="100"
     height="100"
     style="color-interpolation-filters:sRGB"
     inkscape:label="filtermask-powermask-path-effect909"><feColorMatrix
       result="fbSourceGraphic"
       type="saturate"
       values="1" /><feColorMatrix
       in="fbSourceGraphic"
       values="-1 0 0 0 1 0 -1 0 0 1 0 0 -1 0 1 0 0 0 1 0 " /></filter></defs><sodipodi:namedview
   inkscape:document-rotation="0"
   inkscape:current-layer="Capa_1"
   inkscape:window-maximized="0"
   inkscape:window-y="25"
   inkscape:window-x="0"
   inkscape:cy="-6.4127258"
   inkscape:cx="-9.0555497"
   inkscape:zoom="16.15"
   showgrid="false"
   inkscape:window-height="1387"
   inkscape:window-width="2560"
   inkscape:pageshadow="2"
   inkscape:pageopacity="0"
   guidetolerance="10"
   gridtolerance="10"
   objecttolerance="10"
   borderopacity="1"
   bordercolor="#666666"
   pagecolor="#ffffff" />

<g
   class="right"
   transform="matrix(0.03864212,0,0,0.033894,-1.7245407,0.10789553)"><path
     transform="matrix(25.878497,0,0,29.503747,44.628522,-3.1833224)"
     d="M 10 0.26953125 L 10 20 L 11.566406 20 C 11.566406 20 10.973156 17.833114 10.947266 17.109375 C 10.921414 16.385603 11.205078 15.052734 11.205078 15.052734 L 12.601562 13.785156 C 13.138804 14.107319 13.788395 14.291016 14.488281 14.291016 C 16.218328 14.291016 17.641628 13.137155 17.816406 11.660156 C 19.090823 11.245633 20 10.168666 20 8.90625 C 20 8.1607854 19.679988 7.4827441 19.158203 6.9648438 C 19.299363 6.6400375 19.380859 6.2884513 19.380859 5.9199219 C 19.380859 4.4024197 18.068635 3.1552557 16.384766 3.0019531 C 15.912172 1.8840951 14.689264 1.0859375 13.25 1.0859375 C 12.619979 1.0859375 12.032224 1.2404016 11.529297 1.5058594 C 11.183923 0.96337027 10.646749 0.53043167 10 0.26953125 z M 11.173828 11.736328 C 11.264367 12.339167 11.563523 12.882419 12.005859 13.3125 C 11.622645 13.611072 11.180549 13.895907 10.792969 13.990234 C 10.006602 14.181769 10.477726 12.752897 10.703125 11.925781 C 10.866117 11.872635 11.023819 11.81059 11.173828 11.736328 z "
     style="stroke-width:0.0361903"
      /></g><g
      class="left"
   transform="matrix(0.03864212,0,0,0.033894,-1.7245407,0.10789553)"
   ><path
     transform="matrix(25.878497,0,0,29.503747,44.628522,-3.1833224)"
     d="M 8.6074219 0 C 6.9412896 0 5.5623355 1.0705208 5.3066406 2.46875 C 5.170659 2.4541756 5.0330036 2.4433594 4.8925781 2.4433594 C 3.0446347 2.4433594 1.546875 3.7577223 1.546875 5.3789062 C 1.546875 5.4583199 1.553514 5.5354945 1.5605469 5.6132812 C 0.62347546 6.1334864 0 7.0471838 0 8.0917969 C 0 9.015205 0.48799502 9.8389198 1.2480469 10.376953 C 1.2447237 10.429794 1.2382812 10.481638 1.2382812 10.535156 C 1.2382812 12.156035 2.7356931 13.470703 4.5839844 13.470703 C 5.1378805 13.470703 5.6590675 13.351297 6.1191406 13.142578 C 6.7565424 13.544154 7.6694168 14.045469 8.1113281 13.945312 C 8.1113281 13.945312 8.2757078 16.178878 8.2402344 16.746094 C 8.1726107 17.82538 7.8027211 19.027649 7.5429688 20 L 10 20 L 10 0.26953125 C 9.5756539 0.098348686 9.1053086 5.8646396e-17 8.6074219 0 z M 8.0195312 11.792969 C 8.4751605 11.996841 8.988293 12.113281 9.5351562 12.113281 C 9.6755817 12.113281 9.8132371 12.102804 9.9492188 12.087891 C 9.8435326 12.685238 9.6589009 13.352757 9.3496094 13.402344 C 9.009636 13.456472 8.4304516 12.539416 8.0195312 11.792969 z M 7.5566406 11.878906 L 8.2148438 13.085938 C 8.214496 13.085971 7.8570082 13.225419 6.8925781 12.658203 C 7.1608317 12.433588 7.3848378 12.170293 7.5566406 11.878906 z "
     style="stroke-width:0.0361903"
    /></g></svg>
