<?xml version="1.0" encoding="UTF-8" standalone="no"?>
<svg
   xmlns:dc="http://purl.org/dc/elements/1.1/"
   xmlns:cc="http://creativecommons.org/ns#"
   xmlns:rdf="http://www.w3.org/1999/02/22-rdf-syntax-ns#"
   xmlns:svg="http://www.w3.org/2000/svg"
   xmlns="http://www.w3.org/2000/svg"
   xmlns:sodipodi="http://sodipodi.sourceforge.net/DTD/sodipodi-0.dtd"
   xmlns:inkscape="http://www.inkscape.org/namespaces/inkscape"
   version="1.0"
   width="45.33466pt"
   height="1279.9995pt"
   viewBox="0 0 45.33466 1279.9995"
   preserveAspectRatio="xMidYMid meet"
   id="svg1108"
   sodipodi:docname="stringinstrumentbow.svg"
   inkscape:version="0.92.4 (5da689c313, 2019-01-14)">
  <defs
     id="defs1112" />
  <sodipodi:namedview
     pagecolor="#ffffff"
     bordercolor="#666666"
     borderopacity="1"
     objecttolerance="10"
     gridtolerance="10"
     guidetolerance="10"
     inkscape:pageopacity="0"
     inkscape:pageshadow="2"
     inkscape:window-width="1054"
     inkscape:window-height="934"
     id="namedview1110"
     showgrid="false"
     inkscape:zoom="1.8101934"
     inkscape:cx="-34.257959"
     inkscape:cy="1679.4596"
     inkscape:window-x="3"
     inkscape:window-y="0"
     inkscape:window-maximized="0"
     inkscape:current-layer="g830"
     fit-margin-top="0"
     fit-margin-left="0"
     fit-margin-right="0"
     fit-margin-bottom="0" />
  <metadata
     id="metadata1102">
Created by potrace 1.15, written by Peter Selinger 2001-2017
<rdf:RDF>
  <cc:Work
     rdf:about="">
    <dc:format>image/svg+xml</dc:format>
    <dc:type
       rdf:resource="http://purl.org/dc/dcmitype/StillImage" />
    <dc:title />
  </cc:Work>
</rdf:RDF>
</metadata>
  <g
     id="g830">
    <path
       style="opacity:1;fill:#7e3e25;fill-opacity:1;fill-rule:evenodd;stroke:#9b9b9a;stroke-width:0;stroke-linecap:round;stroke-linejoin:round;stroke-miterlimit:4;stroke-dasharray:none;stroke-opacity:1;paint-order:normal"
       d="M 56.285156 0.21484375 C 54.230731 0.41257143 50.869108 0.87883159 48.046875 1.4667969 C 40.180204 2.9334635 35.113144 6.4009123 25.646484 16.267578 C 15.913144 26.534246 10.312891 34.534245 4.7128906 46.267578 C -0.75376943 58.134245 -1.0201857 64.000671 1.6464844 131.33398 C 9.6464846 335.20065 12.178642 551.46665 10.445312 846 C 9.2453145 1018.8 8.3132812 1106.9333 5.1132812 1348 C 4.9257876 1362.1372 4.7177439 1380.7936 4.5058594 1401.2383 L 29.0625 1401.2422 C 29.208103 1349.9903 30.142427 1258.3369 31.779297 1146.666 C 34.179297 984.53279 34.979423 632.66667 33.246094 530 C 30.979423 395.33333 26.713144 265.46733 21.646484 179.33398 C 19.246484 137.86732 19.112752 99.866797 21.246094 89.466797 C 22.179423 84.666797 24.045317 80.933724 26.445312 78.400391 C 29.778642 75.200391 31.246875 74.666016 38.046875 74.666016 C 42.313535 74.666016 48.045703 75.066797 50.845703 75.466797 L 55.779297 76.400391 L 56.285156 74.619141 L 56.285156 0.21484375 z M 56.285156 74.619141 C 58.441309 74.659513 58.486202 74.641597 58.373047 74.619141 L 56.285156 74.619141 z M 29.685547 1449.5156 L 29.685547 1458.7773 C 29.767735 1455.4431 29.774211 1452.2554 29.685547 1449.5156 z M 53.673828 1499.1465 C 53.670458 1499.1497 53.667443 1499.1591 53.664062 1499.1621 L 59.808594 1499.1621 C 56.457182 1499.131 54.216255 1499.144 53.673828 1499.1465 z M 3.6210938 1499.1621 C 3.4190939 1524.8544 3.2369563 1550.2186 3.1132812 1572.9336 L 2.5683594 1682.1855 L 26.445312 1682.1855 L 26.445312 1680.9336 C 26.445312 1666.9336 26.845577 1644.1342 27.378906 1630.2676 L 28.179688 1605.334 L 28.179688 1499.1621 L 3.6210938 1499.1621 z M 29.808594 1517.5625 C 29.832969 1517.7814 29.857942 1517.9799 29.882812 1518.1934 C 29.857895 1517.9805 29.833018 1517.7807 29.808594 1517.5625 z M 30.236328 1520.9082 C 30.276171 1521.1839 30.316622 1521.4434 30.357422 1521.7051 C 30.316655 1521.4449 30.27615 1521.1824 30.236328 1520.9082 z M 30.699219 1523.6582 C 30.764837 1523.9929 30.830915 1524.3398 30.898438 1524.6367 C 30.831018 1524.3413 30.764767 1523.9911 30.699219 1523.6582 z M 31 1525.0703 C 31.127233 1525.5862 31.255626 1526.0349 31.388672 1526.4062 C 31.255721 1526.0361 31.127244 1525.5844 31 1525.0703 z M 31.566406 1526.8535 C 31.590235 1526.907 31.614687 1526.969 31.638672 1527.0176 C 31.614674 1526.9691 31.590251 1526.9069 31.566406 1526.8535 z M 41.113281 1527.334 C 40.979948 1527.4923 40.834478 1527.642 40.679688 1527.7812 C 40.834903 1527.6417 40.979624 1527.4927 41.113281 1527.334 z "
       transform="scale(0.75)"
       id="stick">
      <title
         id="title882">stick</title>
    </path>
    <path
       style="opacity:1;fill:#d9c6a8;fill-opacity:1;fill-rule:evenodd;stroke:#9b9b9a;stroke-width:0;stroke-linecap:round;stroke-linejoin:round;stroke-miterlimit:4;stroke-dasharray:none;stroke-opacity:1;paint-order:normal"
       d="m 42.214254,55.963909 -0.37911,1.336381 v 531.99904 c 0,505.49997 -0.405367,535.04817 -2.099122,535.05907 0,0 2.323447,-0.013 5.121092,0.013 0.02498,-72.0958 0.107548,-276.73253 0.278323,-547.67139 L 45.315609,55.955568 c -3.519455,-0.06586 0.4181,0.0742 -3.101355,0.0083 z"
       id="bow_hair"
       inkscape:label="bow hair"
       inkscape:connector-curvature="0"
       sodipodi:nodetypes="ccscccccc">
      <title
         id="title1131">bow hair</title>
    </path>
    <path
       style="opacity:1;fill:#221b1a;fill-opacity:1;fill-rule:evenodd;stroke:#9b9b9a;stroke-width:0;stroke-linecap:round;stroke-linejoin:round;stroke-miterlimit:4;stroke-dasharray:none;stroke-opacity:1;paint-order:normal"
       d="m 21.135436,1124.3716 v 79.6289 h 23.699708 v -25.3008 c 0,-2.0026 0.01778,-42.1407 0.02197,-54.3281 H 30.760929 L 31.434751,1134 c 0.500003,7.4001 0.400883,10.3005 -0.599122,11.5005 -1.599998,1.9 -5.400878,1.9996 -6.900878,0.1 -1.182307,-1.4187 -2.149245,-10.8823 -2.499022,-21.2285 z"
       id="frog"
       inkscape:label="frog"
       inkscape:connector-curvature="0">
      <title
         id="title1138">frog</title>
    </path>
    <path
       style="opacity:1;fill:#343334;fill-opacity:1;fill-rule:evenodd;stroke:#9b9b9a;stroke-width:0;stroke-linecap:round;stroke-linejoin:round;stroke-miterlimit:4;stroke-dasharray:none;stroke-opacity:1;paint-order:normal"
       d="m 2.6085787,1050.9288 c -0.2519084,22.3297 -0.5022739,47.9177 -0.7207262,73.4428 H 22.264369 c -3.3e-5,0 4e-5,0 0,0 -0.19223,-5.2255 -0.21162,-10.6534 0,-15.4116 v -58.0283 z"
       id="grip"
       inkscape:label="grip"
       inkscape:connector-curvature="0">
      <title
         id="title1163">grip</title>
    </path>
    <path
       style="opacity:1;fill:#dcd4c5;fill-opacity:1;fill-rule:evenodd;stroke:#000016;stroke-width:0.75;stroke-linecap:round;stroke-linejoin:round;stroke-miterlimit:4;stroke-dasharray:none;stroke-opacity:1;paint-order:normal"
       d="m 1.9269381,1261.6392 -0.09228,18.3603 H 19.834659 v -18.3603 z"
       id="screw"
       inkscape:label="screw"
       inkscape:connector-curvature="0">
      <title
         id="title1150">screw</title>
    </path>
    <path
       style="opacity:1;fill:#c2c2cc;fill-opacity:1;fill-rule:evenodd;stroke:none;stroke-width:0;stroke-linecap:round;stroke-linejoin:round;stroke-miterlimit:4;stroke-dasharray:none;stroke-opacity:1;paint-order:normal"
       d="m 45.713765,-0.09991405 -2.499023,0.09745992 C 42.948537,0.01615021 42.58102,0.05506021 42.214254,0.09357256 V 55.963909 h 3.479004 z"
       id="tip"
       inkscape:connector-curvature="0"
       inkscape:label="tip">
      <title
         id="title840">tip</title>
    </path>
  </g>
</svg>
