<?xml version="1.0" encoding="iso-8859-1"?>
<!-- Generator: Adobe Illustrator 19.0.0, SVG Export Plug-In . SVG Version: 6.00 Build 0)  -->
<svg version="1.1" id="Capa_1" xmlns="http://www.w3.org/2000/svg" xmlns:xlink="http://www.w3.org/1999/xlink" x="0px" y="0px"
	 viewBox="0 0 60 60" style="enable-background:new 0 0 60 60;" xml:space="preserve">
	 <g>
<path d="M54.244,29.521c-3.245-3.244-6.993-5.26-9.783-5.26c-1.169,0-2.15,0.364-2.839,1.053c-1.158,1.158-1.352,3.059-0.584,5.372
	c0.001,0.005,0,0.009,0.002,0.014c0,0.001,0.003,0.011,0.003,0.011c0.007,0.021,0.015,0.041,0.021,0.063h-0.002
	c0.963,2.808,1.431,5.332,1.431,7.718V41c-1.654,0-3,1.346-3,3c0,1.583,1.237,2.871,2.793,2.979
	c-0.403,1.087-1.356,1.899-2.495,2.007c-0.929,0.081-1.784-0.229-2.419-0.865c-0.567-0.566-0.879-1.319-0.879-2.121v-1
	c0.266,0,0.52-0.105,0.707-0.293l1-1c0.188-0.188,0.293-0.441,0.293-0.707v-2c0-0.266-0.105-0.52-0.293-0.707l-1-1
	C37.013,39.105,36.759,39,36.493,39v-1c0.266,0,0.52-0.105,0.707-0.293l1-1c0.188-0.188,0.293-0.441,0.293-0.707v-2
	c0-0.266-0.105-0.52-0.293-0.707l-1-1C37.013,32.105,36.759,32,36.493,32v-1c0.266,0,0.52-0.105,0.707-0.293l1-1
	c0.188-0.188,0.293-0.441,0.293-0.707v-2c0-0.266-0.105-0.52-0.293-0.707l-1-1C37.013,25.105,36.759,25,36.493,25v-1
	c0.266,0,0.52-0.105,0.707-0.293l1-1c0.188-0.188,0.293-0.441,0.293-0.707v-2c0-0.266-0.105-0.52-0.293-0.707l-1-1
	C37.013,18.105,36.759,18,36.493,18v-1c0.266,0,0.52-0.105,0.707-0.293l1-1c0.188-0.188,0.293-0.441,0.293-0.707v-2
	c0-0.266-0.105-0.52-0.293-0.707l-1-1C37.013,11.105,36.759,11,36.493,11h-0.05c-0.22-2.867-1.37-5.581-3.314-7.726
	C31.244,1.193,28.529,0,25.681,0c-2.418,0-4.772,0.853-6.632,2.401C17.813,3.433,16.244,4,14.634,4h-0.141c0-0.553-0.447-1-1-1h-3
	c-0.553,0-1,0.447-1,1h-3C6.491,4,6.49,4.001,6.488,4.001C6.372,4.002,6.258,4.029,6.147,4.07C6.117,4.081,6.091,4.093,6.063,4.106
	C6.035,4.12,6.005,4.127,5.979,4.143l-5,3C0.678,7.323,0.493,7.648,0.493,8v3c0,0.553,0.447,1,1,1h5h3c0,0.553,0.447,1,1,1h3
	c0.553,0,1-0.447,1-1h0.473c1.862,0,3.648-0.571,5.165-1.652l2.861-2.039c0.604-0.432,1.318-0.659,2.063-0.659
	c1.53,0,3.193,0.986,3.41,2.869c0.018,0.153,0.027,0.31,0.027,0.469V18h3c0.553,0,1,0.447,1,1s-0.447,1-1,1h-3v2h3
	c0.553,0,1,0.447,1,1s-0.447,1-1,1h-3v8h3c0.553,0,1,0.447,1,1s-0.447,1-1,1h-3v2h3c0.553,0,1,0.447,1,1s-0.447,1-1,1h-3v7.57
	c0,7.81,6.156,14.281,13.724,14.427L42.495,60c3.884,0,7.494-1.555,10.166-4.376c2.67-2.82,4.023-6.517,3.811-10.409
	c-0.053-0.972,0.489-1.943,1.487-2.666c0.111-0.075,0.218-0.156,0.319-0.244c0.002-0.002,0.004-0.003,0.006-0.005
	c0.052-0.045,0.102-0.092,0.15-0.14c0.006-0.006,0.011-0.011,0.017-0.017C60.85,39.745,59.041,34.318,54.244,29.521z M2.493,8.566
	l3-1.8V10h-3V8.566z M11.493,11V5h1v6H11.493z M36.493,42.586L36.079,43h-0.586h-0.586l-0.414-0.414v-1.172L34.907,41h0.586h0.586
	l0.414,0.414V42.586z M36.493,35.586L36.079,36h-0.586h-0.586l-0.414-0.414v-1.172L34.907,34h0.586h0.586l0.414,0.414V35.586z
	 M36.493,28.586L36.079,29h-0.586h-0.586l-0.414-0.414v-1.172L34.907,27h0.586h0.586l0.414,0.414V28.586z M36.493,21.586L36.079,22
	h-0.586h-0.586l-0.414-0.414v-1.172L34.907,20h0.586h0.586l0.414,0.414V21.586z M36.493,14.586L36.079,15h-0.586h-0.586
	l-0.414-0.414v-1.172L34.907,13h0.586h0.02h0.566l0.414,0.414V14.586z M43.036,26.729c0.31-0.31,0.789-0.467,1.425-0.467
	c2.21,0,5.573,1.879,8.369,4.674c4.007,4.007,5.525,8.476,4.207,9.794c-0.069,0.069-0.149,0.127-0.234,0.181
	c-0.134,0.084-0.29,0.146-0.464,0.193c-0.037,0.01-0.077,0.018-0.116,0.026c-0.186,0.04-0.385,0.066-0.61,0.066
	c-1.934,0-4.75-1.439-7.297-3.671c-0.364-0.319-0.722-0.654-1.072-1.004c-0.252-0.252-0.497-0.509-0.734-0.769
	c-0.01-0.011-0.019-0.023-0.029-0.034c-1.651-1.82-2.91-3.806-3.517-5.574c-0.005-0.014-0.009-0.027-0.014-0.041
	c-0.003-0.01-0.007-0.019-0.01-0.028l-0.002,0.001c-0.001-0.003-0.002-0.005-0.003-0.008l0.001,0l-0.001,0
	c-0.001-0.004-0.003-0.008-0.004-0.012l0.001,0c-0.001-0.002-0.003-0.004-0.004-0.006C42.428,28.535,42.459,27.306,43.036,26.729z
	 M41.493,44c0-0.552,0.448-1,1-1v2C41.941,45,41.493,44.552,41.493,44z"/></g>
<g>
</g>
<g>
</g>
<g>
</g>
<g>
</g>
<g>
</g>
<g>
</g>
<g>
</g>
<g>
</g>
<g>
</g>
<g>
</g>
<g>
</g>
<g>
</g>
<g>
</g>
<g>
</g>
<g>
</g>
</svg>
